inDegrees=no
num_controls=7
num_derivatives=13
num_iterations=139
num_multipliers=7
num_parameters=0
num_slacks=7
num_states=26
objective=5.000513
objective_accelerations=0.698042
objective_balance=0.073975
objective_effort=0.674545
objective_height=3.447751
objective_ligament=0.106200
solver_duration=1422.091218
status=Solve_Succeeded
success=true
DataType=double
version=3
OpenSimVersion=4.4-2022-07-23-0e9fedc
endheader
time	/jointset/ground_pelvis/pelvis_tilt/value	/jointset/ground_pelvis/pelvis_tx/value	/jointset/ground_pelvis/pelvis_ty/value	/jointset/hip_l/hip_flexion_l/value	/jointset/hip_l/hip_adduction_l/value	/jointset/hip_l/hip_rotation_l/value	/jointset/back/lumbar_extension/value	/jointset/patellofemoral_l/patellar_flexion_l/value	/jointset/knee_l/knee_flexion_l/value	/jointset/knee_l/knee_adduction_l/value	/jointset/knee_l/knee_rotation_l/value	/jointset/ankle_l/ankle_angle_l/value	/jointset/subtalar_l/subtalar_angle_l/value	/jointset/ground_pelvis/pelvis_tilt/speed	/jointset/ground_pelvis/pelvis_tx/speed	/jointset/ground_pelvis/pelvis_ty/speed	/jointset/hip_l/hip_flexion_l/speed	/jointset/hip_l/hip_adduction_l/speed	/jointset/hip_l/hip_rotation_l/speed	/jointset/back/lumbar_extension/speed	/jointset/patellofemoral_l/patellar_flexion_l/speed	/jointset/knee_l/knee_flexion_l/speed	/jointset/knee_l/knee_adduction_l/speed	/jointset/knee_l/knee_rotation_l/speed	/jointset/ankle_l/ankle_angle_l/speed	/jointset/subtalar_l/subtalar_angle_l/speed	/forceset/tau_hip_flexion_l	/forceset/tau_hip_adduction_l	/forceset/tau_hip_rotation_l	/forceset/tau_knee_flexion_l	/forceset/tau_ankle_angle_l	/forceset/tau_subtalar_angle_l	/forceset/tau_lumbar_extension	lambda_cid13_p0	lambda_cid13_p1	lambda_cid13_p2	lambda_cid13_p3	lambda_cid13_p4	lambda_cid13_p5	lambda_cid14_p0	/jointset/ground_pelvis/pelvis_tilt/accel	/jointset/ground_pelvis/pelvis_tx/accel	/jointset/ground_pelvis/pelvis_ty/accel	/jointset/hip_l/hip_flexion_l/accel	/jointset/hip_l/hip_adduction_l/accel	/jointset/hip_l/hip_rotation_l/accel	/jointset/back/lumbar_extension/accel	/jointset/patellofemoral_l/patellar_flexion_l/accel	/jointset/knee_l/knee_flexion_l/accel	/jointset/knee_l/knee_adduction_l/accel	/jointset/knee_l/knee_rotation_l/accel	/jointset/ankle_l/ankle_angle_l/accel	/jointset/subtalar_l/subtalar_angle_l/accel	gamma_cid13_p0	gamma_cid13_p1	gamma_cid13_p2	gamma_cid13_p3	gamma_cid13_p4	gamma_cid13_p5	gamma_cid14_p0
1	-0.1332989094802531	-0.0557123397314874	0.4258417578709136	2.089569048100775	-0.3005868937695269	0.1210500428344544	-0.9599150333940223	2.093061059971408	2.093061059971403	0.1744480062799794	-0.1744876084711267	0.2863683822646808	0.1044649956609504	0.04274768196653719	0.005470363630352885	0.07043071968233551	-0.2746052827469199	-0.0186943507653748	-0.04506685515907672	0.0002836151131935478	-0.1322852590163107	-0.1322852590162982	-0.01497264258179733	-0.0002613547610037115	0.09511369072851521	0.02225346246951714	-0.4126175602976407	-0.02434702793354289	-0.06220920412065024	-0.4084502986807156	0.05112715717840048	-0.004951427503520934	0.4537596931593789	-40.59727831924872	19.23785014257727	-14.91994309329488	25.184350387574	-851.1764487120421	-16.34425369778455	-0.02283839479952308	-0.3226521676572304	-0.5441657422439669	2.519778447867633	-7.745866410944446	-0.3233754404768749	-1.502992981033407	-0.0110525011621303	-6.625762740789788	-6.625762740789757	-1.24889355092222	0.006673706145661564	1.050662877507432	0.1078483723023636	7.777189834218339e-09	2.606555014504536e-08	-2.741897584311225e-07	1.524559168761752e-08	-4.31574212104816e-08	-2.999429741645182e-07	3.399486540015329e-08
1.01	-0.132887997038112	-0.05568495671673453	0.4266725368511507	2.086434803396618	-0.3007886517514317	0.120528268669335	-0.9599126009202212	2.091405261163844	2.091405261163827	0.1742322646596196	-0.1744893350778466	0.2873716313536492	0.1046944960513675	0.03942850593672433	2.946601616661933e-06	0.09577068571776017	-0.3523109124302751	-0.021641287783577	-0.0592688536259111	0.0001947497810786222	-0.1990242072743769	-0.1990242072743735	-0.02824239890420192	-9.62118011494131e-05	0.105447141994538	0.02362529076407053	-0.4130781442067692	-0.02407340138529544	-0.06213304143333775	-0.4106473339808132	0.05107785987920354	-0.004621631022666614	0.4544896355919149	-40.71504601798664	19.12430878053623	-14.91220059538448	25.41046456767411	-852.8433831542709	-16.95437086846048	-0.02297063466959956	-0.3374929207702481	-0.548525684428443	2.547931805827075	-7.792998154591069	-0.2778910580670002	-1.375929130667056	-0.009023032728743689	-6.720426373240908	-6.720426373242356	-1.375981034679967	0.01950989833915225	1.011336890816979	0.148697456140791	2.043700707355791e-08	-4.634497270901197e-09	-3.779918655271778e-07	-1.020903803679144e-08	-7.605964703561059e-08	-4.915952333657522e-07	4.879109901043081e-08
1.02	-0.132510464876296	-0.0557123470725175	0.4277580807166318	2.082521485014112	-0.3010193867486327	0.1198650493494184	-0.9599113009963067	2.089077579772715	2.089077579772713	0.1738818326033459	-0.1744897951935524	0.2884755450831944	0.1049370842043516	0.03607162590183039	-0.005484310476818285	0.1213836967311318	-0.4304200184160208	-0.0244897538248227	-0.07335588613907697	5.710510927472637e-05	-0.2666617757294732	-0.266661775729479	-0.04191072969779747	-8.056543920497285e-06	0.1152466188472535	0.02487101498299902	-0.4135387281159281	-0.02379977483686797	-0.06205687874659701	-0.4128443692808806	0.05102856258005938	-0.004291834541531023	0.4552195780244582	-40.82230853180182	19.00993673683405	-14.90547755068964	25.59778455727955	-854.3708624883678	-17.53407765548972	-0.02315553837718481	-0.330192968673317	-0.5481337521837899	2.574387443457002	-7.826561671422474	-0.30368124508552	-1.479999790299979	-0.02080836910049172	-6.805486780195857	-6.805486780195838	-1.328608445160157	-0.008723834379280135	0.9438679948457658	0.08262755717733342	3.956521688654335e-08	-5.823465467637834e-08	-5.199519507816895e-07	-4.019576296892362e-08	-1.139832822910324e-07	-8.413712986053281e-07	7.651199767446951e-08
1.03	-0.1321664842400218	-0.05579454899360221	0.4291010386685644	2.07782548815687	-0.3012780551134109	0.1190616978161019	-0.959911438405194	2.08606934411595	2.086069344115959	0.1733927318999476	-0.1744897694280726	0.2896744714595852	0.1051914251335153	0.03273624588910294	-0.0109436109679332	0.1472455049995617	-0.5088033306266874	-0.02722030090497219	-0.08731556471065789	-7.242187442803869e-05	-0.3351052270564138	-0.3351052270564173	-0.055940817156869	1.650834119816807e-05	0.1244182416180257	0.02597095001543301	-0.4140453784764845	-0.02348719904982105	-0.06185576870850024	-0.4152089782548249	0.05125501276411851	-0.003800506076005617	0.4561096179346267	-40.8247796559973	18.79261904092657	-14.86584381922766	25.53021813652694	-855.9381978704262	-18.33290457747157	-0.02338451424447925	-0.3334410138432646	-0.542973009748398	2.597688598331811	-7.847806354215273	-0.2540883635221365	-1.35410783474692	-0.007200112706753222	-6.881776065804936	-6.881776065804654	-1.444834129202919	0.008376301437089121	0.8857458952931857	0.1198404427286222	5.875943070538236e-08	-1.120684866735855e-07	-6.623014031602674e-07	-7.022873377052239e-08	-1.51958156418192e-07	-1.192760872069786e-06	1.043647806757916e-07
